<svg xmlns="http://www.w3.org/2000/svg" xmlns:xlink="http://www.w3.org/1999/xlink" width="50" height="50" version="1.1" viewBox="0 0 50 50"><title>Success Icon Copy</title><desc>Created with Sketch.</desc><g id="Page-1" fill="none" fill-rule="evenodd" stroke="none" stroke-width="1"><g id="2b-Test-Copy" transform="translate(-560.000000, -617.000000)"><g id="Success-Icon-Copy" transform="translate(560.000000, 617.000000)"><path id="Shape" fill="#33E18C" d="M25,48 L25,48 C37.7025492,48 48,37.7025492 48,25 C48,12.2974508 37.7025492,2 25,2 C12.2974508,2 2,12.2974508 2,25 C2,37.7025492 12.2974508,48 25,48 L25,48 Z M25,50 L25,50 C11.1928813,50 0,38.8071187 0,25 C0,11.1928813 11.1928813,0 25,0 C38.8071187,0 50,11.1928813 50,25 C50,38.8071187 38.8071187,50 25,50 L25,50 Z"/><path id="Line" stroke="#33E18C" stroke-linecap="square" stroke-width="2" d="M20.1568542,31.1568542 L16.4233303,27.4233303"/><path id="Line" stroke="#33E18C" stroke-linecap="square" stroke-width="2" d="M20.5,31.5 L33.2632768,18.7367231"/></g></g></g></svg>